#N canvas 446 25 929 690 12;
#X obj 129 95 scattering;
#X floatatom 129 58 5 1 10000 0 - - - 0;
#X floatatom 193 63 5 0.2 10000 0 - - - 0;
#X floatatom 289 58 5 1 100000 0 - - - 0;
#X floatatom 86 136 11 0 0 0 - - - 0;
#X floatatom 169 138 11 0 0 0 - - - 0;
#X floatatom 256 137 10 0 0 0 - - - 0;
#X floatatom 85 159 11 0 0 0 - - - 0;
#X floatatom 169 160 11 0 0 0 - - - 0;
#X floatatom 257 161 10 0 0 0 - - - 0;
#X floatatom 85 182 11 0 0 0 - - - 0;
#X floatatom 171 183 11 0 0 0 - - - 0;
#X floatatom 257 184 10 0 0 0 - - - 0;
#X text 121 39 Rin;
#X obj 402 31 soundfiler;
#N canvas 0 22 450 278 (subpatch) 0;
#X array array2 384001 float 2;
#X coords 0 1 384001 -1 200 140 1 0 0;
#X restore 668 1 graph;
#X obj 808 230 bng 15 250 50 0 empty empty empty 17 7 0 10 #fcfcfc
#000000 #000000;
#X text 193 38 R;
#X text 287 35 C;
#X obj 768 325 tabplay~ array2;
#X obj 230 685 dac~;
#X obj 186 641 writesf~;
#X msg 111 623 start;
#X msg 128 651 stop;
#X obj 418 96 noise~;
#X obj 417 182 *~;
#X obj 143 346 *~;
#X obj 231 313 sig~ 0;
#X text 230 297 a2;
#X obj 140 436 +~;
#X text 169 348 S31 a1;
#X obj 138 470 fexpr~ ($x1[0] + $f2*$y1[-1]);
#X obj 417 137 *~ 0;
#X text 347 470 b3;
#X msg 572 71 0;
#X msg 511 107 1;
#X obj 231 337 *~;
#X text 316 507 S23 a3;
#X text 447 181 S21 a1;
#X obj 469 554 +~;
#X text 519 586 1/2(b2+a2);
#X obj 469 585 *~ 0.5;
#X text 494 557 b2;
#X obj 291 645 *~ 0.01;
#X obj 174 508 fexpr~ ($x1[0]*$f2);
#X msg 768 173 set array2;
#X msg 402 5 read -resize ./expsweep.wav array2;
#X msg 29 583 open ./vouthppd.wav;
#X connect 0 0 4 0;
#X connect 0 1 5 0;
#X connect 0 2 6 0;
#X connect 0 3 7 0;
#X connect 0 4 8 0;
#X connect 0 5 9 0;
#X connect 0 6 10 0;
#X connect 0 7 11 0;
#X connect 0 8 12 0;
#X connect 1 0 0 0;
#X connect 2 0 0 1;
#X connect 3 0 0 2;
#X connect 7 0 25 1;
#X connect 9 0 44 1;
#X connect 10 0 26 1;
#X connect 11 0 36 1;
#X connect 12 0 31 1;
#X connect 16 0 19 0;
#X connect 19 0 32 0;
#X connect 22 0 21 0;
#X connect 23 0 21 0;
#X connect 25 0 39 1;
#X connect 26 0 29 0;
#X connect 27 0 36 0;
#X connect 29 0 31 0;
#X connect 31 0 44 0;
#X connect 32 0 25 0;
#X connect 32 0 26 0;
#X connect 34 0 32 1;
#X connect 35 0 32 1;
#X connect 36 0 29 1;
#X connect 39 0 41 0;
#X connect 41 0 43 0;
#X connect 41 0 21 0;
#X connect 43 0 20 1;
#X connect 43 0 20 0;
#X connect 44 0 39 0;
#X connect 45 0 19 0;
#X connect 46 0 14 0;
#X connect 47 0 21 0;
