#N canvas 295 320 965 487 12;
#X obj 129 95 scattering;
#X floatatom 129 58 5 1 10000 0 - - - 0;
#X floatatom 193 63 5 0.2 10000 0 - - - 0;
#X floatatom 289 58 5 1 100000 0 - - - 0;
#X floatatom 86 136 11 0 0 0 - - - 0;
#X floatatom 169 138 11 0 0 0 - - - 0;
#X floatatom 256 137 10 0 0 0 - - - 0;
#X floatatom 85 159 11 0 0 0 - - - 0;
#X floatatom 169 160 11 0 0 0 - - - 0;
#X floatatom 257 161 10 0 0 0 - - - 0;
#X floatatom 85 182 11 0 0 0 - - - 0;
#X floatatom 171 183 11 0 0 0 - - - 0;
#X floatatom 257 184 10 0 0 0 - - - 0;
#X obj 409 208 *~;
#X text 409 69 a1=Vin;
#X obj 446 458 dac~;
#X obj 497 175 sig~ 0;
#X obj 497 199 *~;
#X text 496 159 a2;
#X obj 580 171 sig~ 0;
#X obj 580 195 *~;
#X text 579 155 a3(i)=b3(i-1);
#X obj 406 298 +~;
#X text 438 208 S31 a1;
#X obj 404 332 fexpr~ ($x1[0] + $f2*$y1[-1]);
#X obj 409 153 *~ 0;
#X obj 404 372 fexpr~ ($x1[0] + $y1[-1])*0.5;
#X text 613 332 b3;
#X text 614 371 1/2(b3+a3);
#X obj 409 86 noise~;
#X obj 527 50 lop~;
#X text 121 39 Rin;
#X obj 402 31 soundfiler;
#N canvas 0 22 450 278 (subpatch) 0;
#X array array1 384001 float 2;
#X coords 0 1 384001 -1 200 140 1;
#X restore 668 1 graph;
#X msg 402 5 read -resize ./expsweep.wav array1;
#X obj 768 325 tabplay~ sample;
#X msg 768 173 set array1;
#X obj 808 230 bng 15 250 50 0 empty empty empty 17 7 0 10 #fcfcfc
#000000 #000000;
#X text 193 38 R;
#X text 287 35 C;
#X msg 544 123 0;
#X msg 504 114 1;
#X obj 402 414 writesf~;
#X msg 327 396 start;
#X msg 344 424 stop;
#X obj 507 418 *~ 0.01;
#X msg 245 356 open ./voutpd2.wav;
#X connect 0 0 4 0;
#X connect 0 1 5 0;
#X connect 0 2 6 0;
#X connect 0 3 7 0;
#X connect 0 4 8 0;
#X connect 0 5 9 0;
#X connect 0 6 10 0;
#X connect 0 7 11 0;
#X connect 0 8 12 0;
#X connect 1 0 0 0;
#X connect 2 0 0 1;
#X connect 3 0 0 2;
#X connect 10 0 13 1;
#X connect 12 0 24 1;
#X connect 13 0 22 0;
#X connect 16 0 17 0;
#X connect 17 0 22 1;
#X connect 19 0 20 0;
#X connect 22 0 24 0;
#X connect 24 0 26 0;
#X connect 25 0 13 0;
#X connect 26 0 42 0;
#X connect 26 0 45 0;
#X connect 34 0 32 0;
#X connect 35 0 25 0;
#X connect 36 0 35 0;
#X connect 37 0 35 0;
#X connect 40 0 25 1;
#X connect 41 0 25 1;
#X connect 43 0 42 0;
#X connect 44 0 42 0;
#X connect 45 0 15 1;
#X connect 46 0 42 0;
