#N canvas 105 25 930 781 12;
#N canvas 465 83 450 300 C_impedence 0;
#X obj 94 4 inlet;
#X obj 94 86 samplerate~;
#X floatatom 94 110 5 0 0 0 - - - 0;
#X obj 94 67 bng 15 250 50 0 empty empty empty 17 7 0 10 #fcfcfc #000000
#000000;
#X obj 94 133 expr pow($f1 \, -1);
#X obj 94 166 /;
#X obj 94 28 t b f;
#X obj 126 53 * 2;
#X obj 94 190 outlet;
#X connect 0 0 6 0;
#X connect 1 0 2 0;
#X connect 2 0 4 0;
#X connect 3 0 1 0;
#X connect 4 0 5 0;
#X connect 5 0 8 0;
#X connect 6 0 3 0;
#X connect 6 1 7 0;
#X connect 7 0 5 1;
#X restore 588 192 pd C_impedence;
#X floatatom 588 216 9 0 0 0 - - - 0;
#X obj 588 242 value Z3;
#X obj 460 243 value Z1;
#X obj 524 242 value Z2;
#X msg 457 384 matrix 1 3 -1 1 1;
#X obj 457 411 matrix;
#X obj 729 414 matrix;
#X obj 729 318 expr Z1 \; Z2 \; Z3 \;;
#X obj 729 299 bng 15 250 50 0 empty empty empty 17 7 0 10 #fcfcfc
#000000 #000000;
#X obj 729 370 pack f f f;
#X msg 729 392 diag \$1 \$2 \$3;
#X text 425 413 Bser;
#X text 778 415 Zser;
#X obj 457 360 bng 15 250 50 0 empty empty empty 17 7 0 10 #fcfcfc
#000000 #000000;
#X obj 349 382 mtx_eye 3;
#X obj 349 362 bng 15 250 50 0 empty empty empty 17 7 0 10 #fcfcfc
#000000 #000000;
#X obj 564 440 mtx_transpose;
#X text 525 441 Bser';
#X obj 467 514 mtx_*;
#X obj 351 645 mtx_-;
#X obj 361 82 bng 15 250 50 0 empty empty empty 17 7 0 10 #fcfcfc #000000
#000000;
#X obj 729 438 mtx_* 2;
#X obj 619 555 mtx_*;
#X obj 456 278 t b b;
#X obj 467 537 mtx_*;
#X obj 467 559 mtx_inverse;
#X obj 364 181 t b b;
#X obj 469 624 mtx_*;
#X obj 449 586 any;
#X obj 439 499 bng 15 250 50 0 empty empty empty 17 7 0 10 #fcfcfc
#000000 #000000;
#X obj 626 510 any;
#X obj 734 477 any;
#X obj 360 103 t b b b b b;
#X obj 609 630 mtx_*;
#X obj 605 658 mtx_*;
#X obj 218 755 matrix;
#X msg 219 727 element 3 1;
#X msg 318 727 element 3 2;
#X msg 406 726 element 3 3;
#X obj 317 758 matrix;
#X obj 410 757 matrix;
#X obj 321 228 t b b;
#X obj 321 252 t b b b;
#X obj 219 788 outlet;
#X obj 319 788 outlet;
#X obj 411 790 outlet;
#X obj 696 717 mtx_print;
#X obj 443 127 t b b b;
#X obj 463 196 f;
#X obj 520 195 f;
#X obj 588 163 f;
#X floatatom 482 36 5 0 0 0 - - - 0;
#X floatatom 552 37 5 0.2 100000 0 - - - 0;
#X obj 552 97 t b f;
#X obj 482 70 t b f;
#X obj 481 6 / 1e+06;
#X floatatom 480 -26 5 1 10000 0 - - - 0;
#X floatatom 614 40 8 0 0 0 - - - 0;
#X obj 614 74 t b f;
#X obj 613 10 / 1e+06;
#X floatatom 612 -16 5 1 100000 0 - - - 0;
#X obj 480 -52 inlet;
#X obj 553 -55 inlet;
#X obj 611 -56 inlet;
#X msg 402 9 1e-06;
#X msg 683 16 1e-06;
#X msg 561 2 300;
#X obj 392 -35 loadbang;
#X obj -63 758 matrix;
#X obj 36 761 matrix;
#X obj 129 760 matrix;
#X obj -62 791 outlet;
#X obj 38 791 outlet;
#X obj 130 793 outlet;
#X msg 125 729 element 2 3;
#X msg 37 730 element 2 2;
#X msg -62 730 element 2 1;
#X obj -336 759 matrix;
#X obj -237 762 matrix;
#X obj -144 761 matrix;
#X obj -335 792 outlet;
#X obj -235 792 outlet;
#X obj -143 794 outlet;
#X msg -335 731 element 1 1;
#X msg -236 731 element 1 2;
#X msg -148 730 element 1 3;
#X obj 552 61 / 1;
#X connect 0 0 1 0;
#X connect 1 0 2 0;
#X connect 5 0 6 0;
#X connect 6 0 17 0;
#X connect 6 0 19 0;
#X connect 6 0 28 1;
#X connect 6 0 35 1;
#X connect 7 0 19 1;
#X connect 7 0 22 0;
#X connect 8 0 10 0;
#X connect 8 1 10 1;
#X connect 8 2 10 2;
#X connect 9 0 8 0;
#X connect 10 0 11 0;
#X connect 11 0 7 0;
#X connect 14 0 5 0;
#X connect 15 0 20 0;
#X connect 16 0 15 0;
#X connect 17 0 25 1;
#X connect 17 0 31 1;
#X connect 19 0 25 0;
#X connect 20 0 36 1;
#X connect 20 0 40 1;
#X connect 20 0 41 1;
#X connect 20 0 47 0;
#X connect 20 0 71 1;
#X connect 20 0 70 1;
#X connect 20 0 69 1;
#X connect 20 0 80 1;
#X connect 20 0 79 1;
#X connect 20 0 78 1;
#X connect 21 0 33 0;
#X connect 22 0 32 1;
#X connect 23 0 34 0;
#X connect 24 0 14 0;
#X connect 24 1 9 0;
#X connect 25 0 26 0;
#X connect 26 0 29 1;
#X connect 27 0 32 0;
#X connect 27 1 31 0;
#X connect 29 0 28 0;
#X connect 29 0 34 1;
#X connect 30 0 29 0;
#X connect 31 0 23 1;
#X connect 32 0 23 0;
#X connect 33 0 42 0;
#X connect 33 1 27 0;
#X connect 33 2 30 0;
#X connect 33 3 24 0;
#X connect 33 4 48 0;
#X connect 34 0 35 0;
#X connect 35 0 20 1;
#X connect 36 0 44 0;
#X connect 37 0 36 0;
#X connect 38 0 40 0;
#X connect 39 0 41 0;
#X connect 40 0 45 0;
#X connect 41 0 46 0;
#X connect 42 0 43 0;
#X connect 42 1 16 0;
#X connect 43 0 37 0;
#X connect 43 0 77 0;
#X connect 43 0 84 0;
#X connect 43 1 38 0;
#X connect 43 1 76 0;
#X connect 43 1 85 0;
#X connect 43 2 39 0;
#X connect 43 2 75 0;
#X connect 43 2 86 0;
#X connect 48 0 49 0;
#X connect 48 1 50 0;
#X connect 48 2 51 0;
#X connect 49 0 3 0;
#X connect 50 0 4 0;
#X connect 51 0 0 0;
#X connect 52 0 55 0;
#X connect 53 0 87 0;
#X connect 54 0 21 0;
#X connect 54 1 50 1;
#X connect 55 0 21 0;
#X connect 55 1 49 1;
#X connect 56 0 52 0;
#X connect 57 0 56 0;
#X connect 58 0 59 0;
#X connect 59 0 21 0;
#X connect 59 1 51 1;
#X connect 60 0 58 0;
#X connect 61 0 60 0;
#X connect 62 0 57 0;
#X connect 63 0 53 0;
#X connect 64 0 61 0;
#X connect 65 0 52 0;
#X connect 66 0 58 0;
#X connect 67 0 53 0;
#X connect 68 0 65 0;
#X connect 68 0 67 0;
#X connect 68 0 66 0;
#X connect 69 0 72 0;
#X connect 70 0 73 0;
#X connect 71 0 74 0;
#X connect 75 0 71 0;
#X connect 76 0 70 0;
#X connect 77 0 69 0;
#X connect 78 0 81 0;
#X connect 79 0 82 0;
#X connect 80 0 83 0;
#X connect 84 0 78 0;
#X connect 85 0 79 0;
#X connect 86 0 80 0;
#X connect 87 0 54 0;
#X coords 0 -1 1 1 85 20 1 100 100;
